<svg xmlns="http://www.w3.org/2000/svg" width="128" height="128" viewBox="0 0 128 128">
  <title>MEDAL</title>
  <g>
    <path d="M100.071,107.39l-15.4-31.4A35.759,35.759,0,0,0,64.1,11.05h-.1A35.763,35.763,0,0,0,43.326,76l-15.4,31.39a1.75,1.75,0,0,0,1.964,2.475l8.653-1.991,3.715,8.059a1.749,1.749,0,0,0,1.567,1.017h.022a1.75,1.75,0,0,0,1.571-.979l16.41-33.45a32.844,32.844,0,0,0,4.335-.006l16.413,33.456a1.75,1.75,0,0,0,1.571.979h.022a1.749,1.749,0,0,0,1.567-1.017l3.715-8.059,8.653,1.991a1.749,1.749,0,0,0,1.964-2.475ZM43.9,111.126l-2.77-6.009a1.752,1.752,0,0,0-1.982-.972L32.69,105.63,46.29,77.9a35.8,35.8,0,0,0,11.848,4.2ZM31.73,46.735A32.259,32.259,0,0,1,64.007,14.55H64.1A32.249,32.249,0,0,1,96.269,46.915h0a32.137,32.137,0,0,1-14.78,27.025C60.12,87.788,31.667,72.381,31.73,46.735Zm57.122,57.41a1.752,1.752,0,0,0-1.981.972l-2.77,6.009L69.862,82.1A35.718,35.718,0,0,0,81.711,77.9l13.6,27.734Z"/>
    <path d="M91.746,46.9A27.731,27.731,0,0,0,64.078,19.075H64a27.746,27.746,0,0,0-.075,55.492H64A27.779,27.779,0,0,0,91.746,46.9ZM64,71.067h-.068A24.246,24.246,0,0,1,64,22.575h.071A24.246,24.246,0,0,1,64,71.067Z"/>
    <path d="M64,44.628a9.262,9.262,0,1,0,9.262,9.262A9.273,9.273,0,0,0,64,44.628Zm0,15.023a5.762,5.762,0,1,1,5.762-5.761A5.769,5.769,0,0,1,64,59.651Z"/>
    <path d="M64,41.4a5.456,5.456,0,1,0-5.455-5.456A5.461,5.461,0,0,0,64,41.4Zm0-7.411a1.956,1.956,0,1,1-1.955,1.955A1.957,1.957,0,0,1,64,33.991Z"/>
    <path d="M50.143,37.067A5.456,5.456,0,1,0,55.6,42.523,5.463,5.463,0,0,0,50.143,37.067Zm0,7.411A1.956,1.956,0,1,1,52.1,42.523,1.957,1.957,0,0,1,50.143,44.478Z"/>
    <path d="M77.857,37.067a5.456,5.456,0,1,0,5.455,5.456A5.463,5.463,0,0,0,77.857,37.067Zm0,7.411a1.956,1.956,0,1,1,1.955-1.955A1.957,1.957,0,0,1,77.857,44.478Z"/>
  </g>
</svg>
