<?xml version="1.0" encoding="utf-8"?>
<!-- Generator: Adobe Illustrator 19.0.1, SVG Export Plug-In . SVG Version: 6.00 Build 0)  -->
<svg version="1.1" id="dentist_x5F_icon_1_" xmlns="http://www.w3.org/2000/svg" xmlns:xlink="http://www.w3.org/1999/xlink"
	 x="0px" y="0px" viewBox="0 0 128 128" style="enable-background:new 0 0 128 128;" xml:space="preserve">
<style type="text/css">
	.st0{display:none;}
	.st1{display:inline;}
	.st2{fill:#2D2C2C;}
	.st3{fill:#1C1C1C;}
	.st4{display:inline;fill:#2D2C2C;}
</style>
<g id="row3_1_">
	<g id="_x35_" class="st0">
		<g class="st1">
			<path class="st2" d="M73.7,33.4H51.5v13.9h22.3V33.4z M62.6,10c-3.7,0-6.7,3-6.7,6.7c0,3.7,3,6.7,6.7,6.7c3.7,0,6.7-3,6.7-6.7
				C69.3,13,66.3,10,62.6,10z M87.7,55.7l-19.4,46L71,69.6l8.3-11.1c0,0-5.2,0-13.9,0c-8.7,0-15.1,0-15.1,0l9.6,11.1l2.8,33
				L40.3,55.7l-25,22.3V128h19.5V86.3h2.8V128h52.9V86.3h2.8V128h19.5V77.9L87.7,55.7z M62.6,55.7C81,55.7,96,43.2,96,27.8
				S81,0,62.6,0S29.2,12.5,29.2,27.8S44.2,55.7,62.6,55.7z M86.6,41.5l1.9-2.5C87.9,39.9,87.3,40.7,86.6,41.5z M90.1,36.2l1-2.7
				C90.8,34.4,90.5,35.3,90.1,36.2z M90.1,19.4c-0.1-0.2-1-1.7-1.6-2.9C89.1,17.4,89.6,18.4,90.1,19.4z M38.6,14.1
				c-0.3,0.4-1.1,1.4-1.7,2.2C37.4,15.6,38,14.8,38.6,14.1z M34.1,33.5l1,2.7C34.7,35.3,34.4,34.4,34.1,33.5z M35.1,36.2h16.3v-2.9
				l-17.4,0c-0.5-1.8-0.8-3.6-0.8-5.6c0-3,0.7-5.8,1.9-8.4h16.5c0,0-0.3-1-0.3-2.7c0-1.8,0.3-2.7,0.3-2.7H38.8c5.3-6,14-10,23.9-10
				c9.8,0,18.5,3.9,23.9,10h-13c0,0,0.2,0.5,0.3,1.6c-0.6-5.6-5.3-10-11.1-10c-6.2,0-11.2,5-11.2,11.1c0,6.2,5,11.1,11.2,11.1
				c6.2,0,11.2-5,11.2-11.1c0-0.3,0-0.7-0.1-1c0,0.3,0,0.6,0.1,1c0,1.8-0.3,2.7-0.3,2.7l16.7,0c1.2,2.6,1.9,5.4,1.9,8.4
				c0,1.9-0.3,3.8-0.8,5.6l-17.4,0v2.9h16.3c-0.4,0.9-0.9,1.8-1.5,2.7H73.8v2.9h12.6c-5.3,6-14,9.9-23.8,9.9
				c-9.8,0-18.4-3.9-23.8-9.9h12.6v-2.9H36.7C36.1,38.1,35.6,37.2,35.1,36.2z M71.5,16.7c0,4.9-4,8.9-8.9,8.9c-4.9,0-8.9-4-8.9-8.9
				c0-4.9,4-8.9,8.9-8.9C67.5,7.8,71.5,11.8,71.5,16.7z M38.6,41.5c-0.7-0.8-1.3-1.6-1.8-2.4L38.6,41.5z"/>
		</g>
	</g>
	<g id="_x34_" class="st0">
		<g class="st1">
			<path class="st2" d="M25.1,20.1c0-6.9-5.6-12.5-12.5-12.5S0,13.1,0,20.1C0,27,5.6,32.6,12.5,32.6S25.1,27,25.1,20.1z M87.8,97.9
				L66.6,79.6l-24,2.3l20.1,16v10H37.6v12.5h77.8v-12.5H92.9L87.8,97.9z M85.3,62.7V32.6c0,0-12.1-10.1-15.1-12.5
				c0.9-3.7-2.7-7.5-15.1-7.5c-9,0-17.6,2.8-17.6,6.3c0,3.5,9.8,6.3,18.8,6.3c3.9,0,8.8-2.5,8.8-2.5l12.5,10v30.7l-26.9,2.2l-6.5-8
				l23.4-4.9l-2.5-5H36.3L22.8,31L9.3,37.7l22.9,29.5l-7.1,0.6l7.5,15.1l52.7-5L128,90.4v-7.5L85.3,62.7z M45.2,80.3
				c-4.2,0-7.5-3.4-7.5-7.5c0-4.2,3.4-7.5,7.5-7.5s7.5,3.4,7.5,7.5C52.7,76.9,49.3,80.3,45.2,80.3z M45.2,67.8c-2.8,0-5,2.2-5,5
				c0,2.8,2.2,5,5,5s5-2.2,5-5C50.2,70,47.9,67.8,45.2,67.8z"/>
		</g>
	</g>
	<g id="_x33_" class="st0">
		<g class="st1">
			<path class="st2" d="M0,43.9l3.5,5.4l7.9-5.2l-3.5-5.4L0,43.9z M42.1,23.1c-2.5-3.7-1.6-2.5-3.5-5.4c-2.4-3.6-8.9-1.8-8.9-1.8
				l-0.2,0.2l11.4,15.1C41.8,29.6,43.8,25.8,42.1,23.1z M89.8,70.5c-7.2,9.7-2.1,33.4-5.3,35.6c-1.3,0.9-3.6-1.1-5.1-2.8
				c2.7-2.8,3.2-7.2,1-10.7l-27.1-41C51.1,53,36.7,34.4,36.7,34.4l2.3-1.5L27.4,17.5l-13.8,9.1l-4.8,8.3l5.9,8.9l9.5-1.1l5.4-3.5
				c0,0,12.4,20,9.4,22l27.1,41c2.1,3.2,6.1,4.6,9.7,3.4c2.4,2.6,7.2,6.6,11.1,4.2c7.5-4.6-2.2-27.7,8.9-38
				c9.7-8.9,25.1,23.6,30,20.9C128.7,91,104.4,51,89.8,70.5z M67.3,96.2L43.7,60.5l1.8-1.2L69,95L67.3,96.2z"/>
		</g>
	</g>
	<g id="_x32_" class="st0">
		<g class="st1">
			<path class="st2" d="M32.2,13.3L0,45.9L9.2,55l8.9-9l28.1,27.8l-8.9,9l9.2,9.1l32.2-32.6L32.2,13.3z M21.7,42.3l12.5-12.7
				c0,0,7.5,7.4,17,16.8c9.7,9.7,11.2,11,11.2,11L49.8,70.1L21.7,42.3z M10.7,31.4L7,27.8l-3.6,3.6L7.1,35L10.7,31.4z M57.2,84.7
				l3.7,3.6l3.6-3.6L60.8,81L57.2,84.7z M80.5,61.2l-9,9l47.5,44.5l8.9-9L80.5,61.2z"/>
		</g>
	</g>
	<g id="_x31_" class="st0">
		<g class="st1">
			<path class="st3" d="M121,59.9c0-0.9-0.8-1.7-1.8-1.7c-1,0-1.8,0.8-1.8,1.7v1.9c-2.3,0.8-5.3,1.8-8.8,2.8v-1.3
				c0-0.9-0.8-1.7-1.8-1.7c-1,0-1.8,0.8-1.8,1.7v2.3c-3.2,0.9-6.7,1.8-10.5,2.6v-1.5c0-0.9-0.8-1.7-1.8-1.7c-1,0-1.8,0.8-1.8,1.7V69
				c-4.5,0.9-9.2,1.7-14,2.2v-1.8c0-1.4-1.2-2.6-2.6-2.6c-1.5,0-2.6,1.2-2.6,2.6v2.3c-2.7,0.2-5.5,0.3-8.2,0.3
				c-3.1,0-6.3-0.1-9.3-0.4v-2.2c0-1.4-1.2-2.6-2.6-2.6c-1.5,0-2.6,1.2-2.6,2.6v1.8c-4.2-0.5-8.4-1.1-12.3-1.8v-1.7
				c0-1.4-1.2-2.6-2.6-2.6c-1.5,0-2.6,1.2-2.6,2.6v0.7c-3.8-0.8-7.4-1.6-10.5-2.5v-2.5c0-0.9-0.8-1.7-1.8-1.7c-1,0-1.8,0.8-1.8,1.7
				v1.6c-2-0.6-3.8-1.1-5.3-1.6v-1.7c0-0.9-0.8-1.7-1.8-1.7c-1,0-1.8,0.8-1.8,1.7v0.6C7.6,61.9,7,61.6,7,61.6v3.4
				c0,0,0.6,0.2,1.8,0.6v2.8c0,0.9,0.8,1.7,1.8,1.7c1,0,1.8-0.8,1.8-1.7v-1.7c1.5,0.5,3.2,1,5.3,1.6v3.5c0,0.9,0.8,1.7,1.8,1.7
				c1,0,1.8-0.8,1.8-1.7v-2.6c3.1,0.8,6.7,1.7,10.5,2.5v2.7c0,1.4,1.2,2.6,2.6,2.6c1.5,0,2.6-1.2,2.6-2.6v-1.6
				c3.9,0.7,8,1.3,12.3,1.7v3.3c0,1.4,1.2,2.6,2.6,2.6c1.5,0,2.6-1.2,2.6-2.6V75c2.9,0.2,5.8,0.3,8.8,0.3c2.9,0,5.9-0.1,8.8-0.3v2.9
				c0,1.4,1.2,2.6,2.6,2.6c1.5,0,2.6-1.2,2.6-2.6v-3.4c4.8-0.5,9.6-1.3,14-2.2v1.3c0,0.9,0.8,1.7,1.8,1.7c1,0,1.8-0.8,1.8-1.7v-2
				c3.8-0.8,7.3-1.7,10.5-2.6v1.2c0,0.9,0.8,1.7,1.8,1.7c1,0,1.8-0.8,1.8-1.7V68c3.5-1,6.5-2,8.8-2.8c0.1,0.9,0.8,1.5,1.7,1.5
				c1,0,1.8-0.8,1.8-1.7V64c1.1-0.4,1.8-0.7,1.8-0.7v-3.4c0,0-0.6,0.3-1.8,0.7V59.9z M67.4,34.8c-36.6,0-66.6,6-67.4,27.1
				C-0.1,66,2.5,74.1,5.3,77.1c3.3,3.6,7,4,7,4s2.7,5.4,7,6.9c1.9,0.7,7-3.4,7-3.4s1,5.9,5.3,6.9c3.6,0.8,10.5-3.4,10.5-3.4
				s4.7,3.7,10.5,5.1c4.3,1.1,12.3-5.1,12.3-5.1s3.9,5.3,8.8,5.1c5.6-0.2,12.3-5.1,12.3-5.1s4.6,2.7,8.8,1.7c2.2-0.5,7-5.1,7-5.1
				s4.4,2.2,8.8,0c2.2-1.1,7-6.9,7-6.9s3.2,1.8,5.3,0c3.6-3.1,5.3-13.3,5.3-16C128,39.8,104,34.8,67.4,34.8z M120.9,75.7
				c-2.3,1.3-5.9,0-5.9,0s-2.1,4.3-5.9,5.8c-3.5,1.4-8.8,0-8.8,0s-2.5,4.1-5.6,4.7c-4.1,0.8-9.2-1.8-9.2-1.8s-6.5,5.8-11.8,5.8
				c-5,0-8.8-5.8-8.8-5.8s-5.5,5.8-11.8,5.8c-5.5,0-11.8-5.8-11.8-5.8s-2.3,4.1-8,3.5c-3-0.3-6-7.3-6.8-8.7c-0.8-1.5-3.7,5-5.9,5.1
				c-5.4-0.7-6.6-6.8-6.6-6.8s-5.4,0.1-8.1-4.1c-2-3.2-1.5-13.9,0-17.3c1.5-3.5,3.7-3.6,5.9-2.9C14,54,14.8,59,14.8,59
				s3.2-5.8,5.9-5.8c3.2,0,5.9,5.8,5.9,5.8s4.9-3.5,8.8-2.9c4.8,0.8,8.8,5.8,8.8,5.8s4-6.5,8.8-5.8c5.4,0.8,11.8,8.7,11.8,8.7
				s3.5-7.6,8.8-8.3c5-0.7,11.9,5.4,11.9,5.4s4.7-5,8.8-5.8c3.1-0.6,5.9,2.9,5.9,2.9s1.5-4.2,5.9-5.8c2-0.7,6.9,3,8.8,2.9
				c4.7-0.1,3.4-4.5,6-4.8c2.5-0.2,5.5,9.6,2.9,16.4C123.4,68.9,122.8,74.7,120.9,75.7z"/>
		</g>
	</g>
</g>
<g id="row2_1_">
	<g id="_x35__1_" class="st0">
		<path class="st4" d="M83.2,33.9c-5.4,0-18.1,4.1-18.1,4.1s-9.3-4.3-14.2-4.3C24.8,33.5,0,42.6,0,52.8c0,11.5,32.1,41.5,65.1,41.5
			c33,0,62.9-30,62.9-41.5C128,42.8,107.8,34,83.2,33.9z M111.9,52.3c-0.3,0.4-0.7,0.8-1.3,1c-0.7,0.3-1.8-0.4-3-1.2
			C109.1,52.1,110.6,52.2,111.9,52.3z M104.1,51.8c0,0,0.2,4.9-0.6,6s-2.5,2-3.8,1.9c-1.5-0.1-3-5.4-3.8-8.5
			C98.8,51.5,101.6,51.7,104.1,51.8z M82.4,66.3c0.4-0.2,0.1-12.2,0-16.1c0.6,0,1.1,0,1.6,0c3.1,0.3,6.2,0.6,9.2,0.8v13.1
			C93,64.2,81.6,66.7,82.4,66.3z M67.3,54.9c3.5-1,8.4-3.6,13-4.5v17.9l-13,0.1V54.9z M48.3,50.2c4.6-0.4,12.9,5.1,16.8,5.1v13.2
			c0,0-7.3,0.1-8.7,0c-0.7-0.1-7.8,0-7.8,0c-0.8-0.5-0.9-14-0.9-18.3C47.9,50.3,48.1,50.2,48.3,50.2z M45.6,50.5v2.8
			c0,0-0.1,7.4,0.7,12.5L36.9,62l-1.8-10.7C38.5,51,42,50.8,45.6,50.5z M34.4,51.3c-0.5,3.2-1.8,8.5-4,8.5c-1.7,0-4.9-5.7-6.1-7.9
			C27.4,51.8,30.8,51.5,34.4,51.3z M23.3,52c-1,1.5-3.1,4.2-3.7,3.5c-1.1-1.3-1.7-2.1-1.9-3.2C19.4,52.2,21.3,52.1,23.3,52z
			 M65.1,77C32.4,77,4.8,52.8,4.8,52.8s4.6-0.1,11.8-0.5c0.2,2,1.1,4.3,3,5.3c1.9,1,3.8-3.8,3.8-3.8s2.8,8.4,7.1,8.1
			c4.2-0.2,4.1-7.8,4.1-7.8l0.2,10l12.1,4.1c0.4,1.4,1,2.3,1.7,2.4c0,0,4.8,0.1,8,0c2,0,10.7,0,10.7,0l15.1-0.1l0-2
			c0,0,12.9-2.5,13-2.2v-13c0,0,2,8.9,4.3,8.7c5.7-0.5,6.4-9.8,6.4-9.8s3.8,4.8,5.5,2.9c0.6-0.7,0.9-1.7,1-2.7
			c6.4,0.3,10.5,0.5,10.5,0.5S96.4,77,65.1,77z"/>
	</g>
	<g id="_x34__1_" class="st0">
		<g class="st1">
			<path class="st2" d="M79.4,42.7c1.7,0.5,3.2,1.3,4.4,2.4c0.5-1.5,0.9-2.6,1.2-3.3c3.1-9.1,3.9-21.8,11.5-20.3
				C104,22.9,107,30,107,30l8.7-2.6c0,0-3.5-11.4-16.4-15.6C87.8,8,83.6,20.2,83.6,20.2s-5,8.9-8.3,18.6c-0.3,0.7-0.8,2-1.7,3.5
				C75.5,42,77.4,42.1,79.4,42.7z M54,70.1l7.4-11.7l2.2,0c-0.7-2.3-0.7-4.8,0-7.3c0-0.1,0.1-0.3,0.1-0.4C53.2,50,41.7,50,31.6,52
				C14.5,55.2,2,70.6,2,70.6s-3.1,4.9-1.5,7.4c1.3,2,7.4,1.5,7.4,1.5s14.8-10.6,27.3-13.2C45.5,64.2,54,70.1,54,70.1z M63.8,59.1
				c-6.8,11-14.9,23.2-19.3,28.6c-10,12.4-21.9,19.8-21.9,19.8s-3.3,5.2-2.2,7.3c1.4,2.6,7.3,2.2,7.3,2.2s18.8-7.5,30.6-22.4
				c6.5-8.2,12-18.1,16.3-27.1c-0.9-0.1-1.7-0.2-2.6-0.5C68,65.7,65.1,62.7,63.8,59.1z M121.4,36.4l-6.4,6.4c0,0,5,5.8,2.7,13.1
				c-2.3,7.3-12.9,0.8-22.4-0.8c-1.2-0.2-3.7-0.7-7.1-1.2c0.1,1.6,0,3.2-0.5,4.8c-0.4,1.2-0.9,2.4-1.6,3.4c2.9,1.4,5.9,2.7,7.2,2.9
				c10.1,1.7,19.4,2.8,19.4,2.8s12.6,2,14.8-9.8C130,44.6,121.4,36.4,121.4,36.4z M78.6,45.1c-5.3-1.6-11,1.4-12.6,6.7
				c-1.6,5.3,1.4,11,6.7,12.6c5.4,1.6,11-1.4,12.6-6.7C87,52.4,84,46.8,78.6,45.1z"/>
		</g>
	</g>
	<g id="_x33__1_" class="st0">
		<g class="st1">
			<path class="st2" d="M96.4,0.2C85.2-1.6,63.8,12,63.8,12S39.5-3.8,22.4,3.1c-16,6.4-24.7,27.5,0,59C11,85,22.4,127.6,49,128
				c6.8,0.1-3.2-41.6,17.8-41.6c19.9,0,10.9,42.9,17.8,41.6c38.8-7.4,26.5-60.2,23.7-68.8C132,18.8,119.8,3.9,96.4,0.2z M28.3,53.7
				c0,1.7-3,1.7-3,0c0,0-8.9-17.1-8.9-23.7C16.4,23.2,26,12,26.8,12c0.8,0,1.5,0.7,1.5,1.5c0,0-8.9,9.7-8.9,16.4
				C19.4,36.6,28.3,53.7,28.3,53.7z"/>
		</g>
	</g>
	<g id="_x32__11_">
		<g>
			<path class="st2" d="M0,94.7c0,14.7,11.9,26.7,26.7,26.7h2.7c14.7,0,26.7-11.9,26.7-26.7V65.3H0V94.7z M5.3,70.7h45.3v24
				c0,11.8-9.6,21.3-21.3,21.3h-2.7c-11.8,0-21.3-9.6-21.3-21.3V70.7z M126.1,83.1l-50.2,20.4c4.5,9,13.6,15.1,24.1,15.1
				c15,0,27.1-12.5,27.1-28C127.1,88.1,126.8,85.5,126.1,83.1z M100,62.7c-15,0-27.1,12.5-27.1,28c0,2.6,0.4,5.1,1,7.5l50.2-20.4
				C119.5,68.8,110.5,62.7,100,62.7z M29.3,6.7h-2.7C11.9,6.7,0,18.6,0,33.3v29.3h56V33.3C56,18.6,44.1,6.7,29.3,6.7z"/>
		</g>
	</g>
	<g id="_x31__2_" class="st0">
		<g class="st1">
			<path class="st2" d="M97.6,106.8l-9.9,4.5l-6.3-13.9l13.9-6.3L67.5,29.5l-11.9,5.4l-4.5-9.9l-6,2.7L34.7,4.2L28,0l13.1,29.4
				l-6,2.7l4.5,9.9l13-5.9L27.7,47.4L55.5,109l24.6-11.1l-12.7,5.7l6.3,13.9l7-3.1L63.8,122l2.7,6l33.8-15.3L97.6,106.8z
				 M57.7,103.3L54,95l10.8-4.3l-0.9-1.8l-10.7,4.2l-2.6-5.8l15.9-7.2l-0.9-2l-15.9,7.2L46.3,78l12-4.7l-0.9-1.8l-11.9,4.7l-12-26.6
				l31.8-14.4l24.2,53.6L57.7,103.3z M51.2,46.4l-15.9,7.2l0.9,2l15.9-7.2L51.2,46.4z M50.8,56.3L38.7,61l0.9,1.7L51.7,58L50.8,56.3
				z M42.5,69.5l0.9,2l15.9-7.2l-0.9-2L42.5,69.5z"/>
		</g>
	</g>
</g>
<g id="row1_1_" class="st0">
	<g id="_x35__2_" class="st1">
		<g>
			<path class="st2" d="M95.5,97.3l-43.5,17.3l3.8,13.4l46.1-18.4L95.5,97.3z M58.8,124.7l-3.7-9.2l1.8-0.7l3.7,9.2L58.8,124.7z
				 M62.5,123.2l-3.7-9.2l1.8-0.7l3.7,9.2L62.5,123.2z M66.2,121.7l-3.7-9.2l1.8-0.7L68,121L66.2,121.7z M69.9,120.3l-3.7-9.2
				l1.8-0.7l3.7,9.2L69.9,120.3z M73.6,118.8l-3.7-9.2l1.8-0.7l3.7,9.2L73.6,118.8z M77.3,117.3l-3.7-9.2l1.8-0.7l3.7,9.2
				L77.3,117.3z M81,115.8l-3.7-9.2l1.8-0.7l3.7,9.2L81,115.8z M84.6,114.4l-3.7-9.2l1.8-0.7l3.7,9.2L84.6,114.4z M88.3,112.9
				l-3.7-9.2l1.8-0.7l3.7,9.2L88.3,112.9z M92,111.4l-3.7-9.2l1.8-0.7l3.7,9.2L92,111.4z M92,100.7l1.8-0.7l3.7,9.2l-1.8,0.7
				L92,100.7z M30.8,22.5c0,0-1.2,5.1-1.4,9.1l25.3-10.1c-3-2.8-7.3-5.6-7.3-5.6l-8.6,3.4l6.8-2.7L39.7,1.9c-0.4-1-1.6-1.5-2.6-1.1
				l-9.2,3.7c-1,0.4-1.5,1.6-1.1,2.6l5.9,14.7L30.8,22.5z M37.8,2.6L43,15.5l-1.8,0.7L36,3.3L37.8,2.6z M34.1,4.1L39.3,17l-1.8,0.7
				L32.3,4.8L34.1,4.1z M28.6,6.3l1.8-0.7l5.2,12.9l-1.8,0.7L28.6,6.3z M57.4,24.7c-0.2-0.5-0.6-1.1-1.1-1.7L29.4,33.8
				c0,0.8,0.1,1.5,0.3,2l21.8,76.8l43.1-17.1L57.4,24.7z M51.4,95.5L35.6,39.8l20.3-8.1L82.8,83L51.4,95.5z M53.7,36.9L40.8,42
				l12.9,48.3l24-9.6L53.7,36.9z"/>
		</g>
	</g>
	<g id="_x34__2_" class="st1">
		<g>
			<path class="st2" d="M94.4,29.5H33.6c-3.6,0-6.5,2.9-6.5,6.6v81c0,3.6,1.9,10.9,8.7,10.9h56.5c7.1,0,8.7-7.3,8.7-10.9v-81
				C100.9,32.5,98,29.5,94.4,29.5z M96,91H32V56.6h64V91z M93.5,59.1h-59v29.5h59V59.1z M91.3,86.5H36.7V61.2h54.6V86.5z M92.3,6.8
				C92.3,3,89.3,0,85.7,0H42.3c-3.6,0-6.6,3-6.6,6.8v20.3h56.6V6.8z M40.6,22.2h-2.5V5h2.5V22.2z M45.5,22.2H43V5h2.5V22.2z
				 M50.4,22.2H48V5h2.5V22.2z M55.3,22.2h-2.5V5h2.5V22.2z M60.3,22.2h-2.5V5h2.5V22.2z M65.2,22.2h-2.5V5h2.5V22.2z M70.1,22.2
				h-2.5V5h2.5V22.2z M75,22.2h-2.5V5H75V22.2z M80,22.2h-2.5V5H80V22.2z M84.9,22.2h-2.5V5h2.5V22.2z M89.8,22.2h-2.5V5h2.5V22.2z"
				/>
		</g>
	</g>
	<g id="_x33__2_" class="st1">
		<g>
			<path class="st2" d="M125.9,115.1c0,0-40.9-35.6-74.1-64.5c-2.3-2-2.7,3.1-10.4-3.6c-4.5-3.9-0.2-5.6-1.9-7.1
				c-0.5-0.5-1-0.9-1.5-1.3l9.4-10.8l-1.5-1.3l-9.4,10.8l0.3,0.3c-0.6-0.6-1.3-1.1-1.9-1.6L44.3,25l-1.5-1.3l-9.4,10.8l1.5,1.3
				c-1-0.9-2-1.8-3-2.6l9.4-10.8L39.6,21l-9.4,10.8c-0.7-0.6-1.3-1.1-1.9-1.7l0.4,0.3l9.4-10.8l-1.5-1.3l-9.4,10.8
				c-0.9-0.8-1.9-1.6-2.8-2.4l1.2,1.1L35,16.9l-1.5-1.3l-9.4,10.8c-0.5-0.5-1-0.9-1.5-1.3l9.4-10.8l-1.5-1.3L21,23.7l0.9,0.8
				c-0.9-0.7-1.7-1.5-2.4-2.1l9.4-10.8l-1.5-1.3L17.9,21l1.1,1c-1.1-0.9-2-1.8-2.9-2.6l0.3,0.2l9.4-10.8l-1.5-1.3l-9.4,10.8
				c-2.9-2.6-4.6-4-4.6-4c-2.6-2.2-6.4-2-8.7,0.6c-2.2,2.6-2,6.4,0.6,8.7l115.7,100.8c2.6,2.2,6.4,2,8.7-0.6
				C128.7,121.2,128.4,117.3,125.9,115.1z M18,2.2L8.6,13l1.5,1.3l9.4-10.8L18,2.2z M13.3,17l9.4-10.8l-1.5-1.3l-9.4,10.8L13.3,17z"
				/>
		</g>
	</g>
	<g id="_x32__1_" class="st1">
		<g>
			<path class="st2" d="M71.8,52l-10.4,8.8l3-2.6L39.9,29.9C45,23.1,45,13.4,39.2,6.6c-6.7-7.9-18.5-8.9-26.4-2.2
				C8.3,8.3,6,14,6.3,19.6c0.2,4,4.3,2.9,4.2-0.1c0-0.3,0-0.7,0-1c0.1-4.1,1.8-8.1,5.1-10.9c6.1-5.2,15.3-4.4,20.5,1.7
				s4.4,15.3-1.7,20.5c2.4,2.8,1.2,1.5,2.7,3.2c0,0,0,0,0,0l24.2,27.9l-8.5,7.2l4,4.8l19-16.1L71.8,52z M77.2,58.3l-19,16.1l1.3,1.6
				l19-16.1L77.2,58.3z M83.2,68.7c-3-3.5-3.4-7.2-3.4-7.2l-19,16.1c0,0,3.6,1,6.7,4.6c9.4,11.1,26.9,35,26.9,35l19-16.1
				C113.4,101.1,92.5,79.7,83.2,68.7z M118.8,107.5l-4-4.8l-19,16.1l4,4.8c4.4,5.3,12.3,5.9,17.6,1.5
				C122.6,120.6,123.2,112.7,118.8,107.5z"/>
		</g>
	</g>
	<g id="_x31__3_" class="st1">
		<g>
			<path class="st2" d="M83.5,68.5c-3.3-3.4-4-7.2-4-7.2L61,79.3c0,0,3.8,0.8,7.2,4.3c10.5,10.8,30.4,34.3,30.4,34.3l18.5-18.1
				C117.1,99.9,94,79.2,83.5,68.5z M19.5,6.5L9.6,26.3c0.5,0.8,1,1.5,1.7,2.2c0.5,0.6,1.1,1,1.7,1.5L24.4,7
				C22.8,6.5,21.1,6.4,19.5,6.5z M11.6,10.1c-3.8,3.7-4.8,9.1-3.1,13.7L16.8,7C14.9,7.6,13.1,8.6,11.6,10.1z M29.9,10.4
				c-1-1.1-2.2-1.9-3.5-2.5L14.9,31c4.8,2.3,10.7,1.6,14.7-2.3C34.8,23.7,34.9,15.5,29.9,10.4z M76.5,58.2L58,76.3l1.5,1.5L78,59.7
				L76.5,58.2z M70.5,52l-7.7,7.5L35.5,31.8c6.3-7.5,5.9-18.7-1-25.9C27-1.8,14.7-2,7.1,5.5C-0.6,13-0.8,25.3,6.7,32.9
				c6.9,7.1,18,7.8,25.7,1.8l27.2,27.8l1.7-1.7L52,70.1l4.5,4.6L75,56.7L70.5,52z M31.1,30.2c-6,5.8-15.5,5.7-21.3-0.3
				C4,24,4.1,14.4,10.1,8.6c2.3-2.2,5.1-3.6,8-4.1l0,0l0.1,0c4.7-0.8,9.7,0.7,13.3,4.3C37.2,14.8,37.1,24.4,31.1,30.2z M123.1,106
				l-4.5-4.6l-18.5,18.1l4.5,4.6c5,5.1,13.2,5.2,18.3,0.2C128,119.3,128.1,111.2,123.1,106z"/>
		</g>
	</g>
</g>
</svg>
