<svg xmlns="http://www.w3.org/2000/svg" viewBox="0 0 48 48"><defs><style>.cls-1{fill:#1e0f00;}</style></defs><title>Asset 141</title><g id="Layer_2" data-name="Layer 2"><g id="_1" data-name="1"><rect class="cls-1" y="46" width="48" height="2"/><path class="cls-1" d="M45,48H3a1,1,0,0,1-1-1V1A1,1,0,0,1,3,0H45a1,1,0,0,1,1,1V47A1,1,0,0,1,45,48ZM4,46H44V2H4Z"/><path class="cls-1" d="M31,48H17a1,1,0,0,1-1-1V20a1,1,0,0,1,1-1H31a1,1,0,0,1,1,1V47A1,1,0,0,1,31,48ZM18,46H30V21H18Z"/><rect class="cls-1" x="23" y="23" width="2" height="8"/><rect class="cls-1" x="20" y="26" width="8" height="2"/><rect class="cls-1" x="1" width="46" height="2"/><rect class="cls-1" x="17" y="33" width="14" height="2"/><rect class="cls-1" x="23" y="34" width="2" height="13"/><path class="cls-1" d="M40,15H8a1,1,0,0,1-1-1V6A1,1,0,0,1,8,5H40a1,1,0,0,1,1,1v8A1,1,0,0,1,40,15ZM9,13H39V7H9Z"/><path class="cls-1" d="M15,29H8a1,1,0,0,1-1-1V20a1,1,0,0,1,1-1h7v2H9v6h6Z"/><path class="cls-1" d="M40,29H33V27h6V21H33V19h7a1,1,0,0,1,1,1v8A1,1,0,0,1,40,29Z"/><path class="cls-1" d="M15,43H8a1,1,0,0,1-1-1V34a1,1,0,0,1,1-1h7v2H9v6h6Z"/><path class="cls-1" d="M40,43H33V41h6V35H33V33h7a1,1,0,0,1,1,1v8A1,1,0,0,1,40,43Z"/><path class="cls-1" d="M32,15H16a1,1,0,0,1-1-1V6a1,1,0,0,1,1-1H32a1,1,0,0,1,1,1v8A1,1,0,0,1,32,15ZM17,13H31V7H17Z"/><rect class="cls-1" x="23" y="6" width="2" height="8"/></g></g></svg>