<?xml version="1.0" encoding="iso-8859-1"?>
<!-- Generator: Adobe Illustrator 19.0.1, SVG Export Plug-In . SVG Version: 6.00 Build 0)  -->
<svg version="1.1" xmlns="http://www.w3.org/2000/svg" xmlns:xlink="http://www.w3.org/1999/xlink" x="0px" y="0px"
	 viewBox="0 0 128 128" style="enable-background:new 0 0 128 128;" xml:space="preserve">
<g id="_x31_5">
	<path id="_x31_5_1_" style="fill-rule:evenodd;clip-rule:evenodd;fill:#171617;" d="M42.175,65.172
		c-35.303,29.772,8.256,73.248,44.81,37.178l5.74,11.35C37.659,156.934-14.547,90.565,40.209,52.053L42.175,65.172L42.175,65.172z
		 M55.082,28.293c1.02,6.468,0.426,4.889,1.446,11.057c6.808,0,13.612,0,20.419,0c4.111,0,6.498,10.607,1.683,11.611
		c-3.588,0.224-15.771,0.094-19.926,0.094c0.16,0.867,1.934,10.91,2.094,10.91c8.26,0,16.516,0,24.775,0
		c1.472,0,2.73,0.92,3.234,2.209c5.243,10.897,21.749,42.871,21.749,42.871l-12.293,3.192c0,0-12.058-23.602-17.957-35.937
		c-9.086,0-18.172,0-27.261,0c-1.503,0-2.853-0.961-3.339-2.298c-2.272-15.17-4.581-29.747-6.886-44.812
		c-4.097-3.164-6.495-7.382-6.495-12.638c0-18.484,27.016-19.344,28.291-1.302C65.073,19.719,61.938,26.684,55.082,28.293
		L55.082,28.293z"/>
</g>
<g id="Layer_1">
</g>
</svg>
