<?xml version="1.0" encoding="utf-8"?>
<!-- Generator: Adobe Illustrator 16.0.0, SVG Export Plug-In . SVG Version: 6.00 Build 0)  -->
<!DOCTYPE svg PUBLIC "-//W3C//DTD SVG 1.0//EN" "http://www.w3.org/TR/2001/REC-SVG-20010904/DTD/svg10.dtd">
<svg version="1.0" id="Layer_1" xmlns="http://www.w3.org/2000/svg" xmlns:xlink="http://www.w3.org/1999/xlink" x="0px" y="0px"
	 width="100px" height="100px" viewBox="0 0 100 100" enable-background="new 0 0 100 100" xml:space="preserve">
<path d="M79.431,67.236L63.333,51.139V36.667H70V30H30v6.667h6.667v14.472L20.569,67.236c-2.415,2.412-3.906,5.745-3.902,9.431
	c0,3.682,1.49,7.012,3.906,9.427C22.985,88.509,26.318,90,30,90h40c3.682,0,7.015-1.491,9.427-3.906s3.906-5.745,3.906-9.427
	C83.337,72.981,81.846,69.648,79.431,67.236z M43.333,53.9V36.667h13.334V53.9l9.234,9.234c-2.637-0.01-5.313-0.465-7.896-1.537
	c-4.938-2.047-10.661-2.209-16-0.002c-2.483,1.031-5.172,1.523-7.903,1.535L43.333,53.9z M74.71,81.384
	c-1.256,1.256-2.93,1.949-4.71,1.949H30c-1.78,0-3.454-0.693-4.714-1.953c-1.256-1.26-1.953-2.936-1.953-4.72
	c0-1.78,0.69-3.45,1.95-4.71l2.79-2.793c5.484,1.233,11.191,0.797,16.484-1.403c3.516-1.452,7.389-1.455,10.898,0.003
	c3.401,1.41,6.976,2.113,10.547,2.113c1.992,0,3.975-0.258,5.931-0.703l2.786,2.786c1.257,1.257,1.947,2.927,1.947,4.714
	C76.667,78.444,75.974,80.12,74.71,81.384z"/>
<path d="M63.333,16.667c0,3.682-2.984,6.667-6.67,6.667c-3.678,0-6.663-2.985-6.663-6.667S52.985,10,56.663,10
	C60.349,10,63.333,12.985,63.333,16.667z"/>
<circle cx="41.667" cy="21.667" r="5"/>
</svg>
