<svg xmlns="http://www.w3.org/2000/svg" viewBox="0 0 32 32"><title>hospital</title><g id="hospital"><path d="M29,28H28V16a1,1,0,0,0-1-1H21V3a1,1,0,0,0-1-1H5A1,1,0,0,0,4,3V28H3a1,1,0,0,0,0,2H29a1,1,0,0,0,0-2ZM26,17V28H21V17ZM15,28H10V22.05h5Zm2,0V21.05a1,1,0,0,0-1-1H9a1,1,0,0,0-1,1v7H6V4H19V28ZM12.5,11a1,1,0,0,1-1-1V9h-1a1,1,0,0,1,0-2h1V6a1,1,0,0,1,2,0V7h1a1,1,0,0,1,0,2h-1v1A1,1,0,0,1,12.5,11ZM12,14a1,1,0,0,1-1,1H9a1,1,0,0,1,0-2h2A1,1,0,0,1,12,14Zm5,0a1,1,0,0,1-1,1H14a1,1,0,0,1,0-2h2A1,1,0,0,1,17,14Zm-5,3a1,1,0,0,1-1,1H9a1,1,0,0,1,0-2h2A1,1,0,0,1,12,17Zm5,0a1,1,0,0,1-1,1H14a1,1,0,0,1,0-2h2A1,1,0,0,1,17,17Z"/></g></svg>