<svg xmlns="http://www.w3.org/2000/svg" viewBox="0 0 48 48"><title>DNA</title><g id="DNA"><path d="M32.23,15.57,29.61,14,31.37,13A11.61,11.61,0,0,0,37,3,3,3,0,0,0,31.89.87C30.36,2.36,31.61,3.55,30.18,6,29.9,6,30.92,6,24,6a1,1,0,0,0,0,2c4.89,0,4.54-.09,4.06.2L24,10.64C20.32,8.43,17.68,7.46,17.09,4H24a1,1,0,0,0,0-2H16.82A3,3,0,0,0,11,3a11.61,11.61,0,0,0,5.63,10L18.39,14l-2.61,1.57a9.84,9.84,0,0,0,0,16.86L18.39,34l-1.77,1C11,38.47,8.66,48,14,48a3,3,0,0,0,3-3,6.18,6.18,0,0,1,.82-3c.28.06-.74,0,6.18,0a1,1,0,0,0,0-2H19.65c.44-.3-.63.35,4.35-2.64,3.68,2.21,6.32,3.18,6.91,6.64H24a1,1,0,0,0,0,2h7.18A3,3,0,0,0,37,45a11.68,11.68,0,0,0-5.63-10l-1.76-1,2.61-1.57A9.84,9.84,0,0,0,32.23,15.57ZM13,3a1,1,0,0,1,2,0c0,5.07,3.71,6.79,7.06,8.8l-1.73,1C17.23,11,13,9,13,3Zm3.8,27.71A7.83,7.83,0,0,1,14,20.14c1.32-2.33,1.74-2.22,15.06-10.22A8.1,8.1,0,0,0,33,3a1,1,0,0,1,2,0,9.6,9.6,0,0,1-4.65,8.23L18.06,18.6a6.3,6.3,0,0,0,0,10.8l4,2.4-1.72,1ZM22,25h8.88c-.53,2.22-1.82,2.59-6.88,5.63L21.28,29H25a1,1,0,0,0,0-2H18.22a4.29,4.29,0,0,1,0-6H25a1,1,0,0,0,0-2H21.28L24,17.37c4.75,2.85,6.32,3.32,6.88,5.63H22A1,1,0,0,0,22,25ZM35,45a1,1,0,0,1-2,0c0-5.07-3.71-6.79-7.06-8.8l1.73-1C30.8,37,35,39.05,35,45ZM18.92,38.08A8.1,8.1,0,0,0,15,45a1,1,0,0,1-2,0,9.66,9.66,0,0,1,4.65-8.23L30,29.39a6.29,6.29,0,0,0,0-10.79l-4-2.4,1.72-1,3.53,2.12a7.83,7.83,0,0,1,0,13.42Z"/></g></svg>